<mxfile host="app.diagrams.net" modified="2025-06-10T15:00:00.000Z" agent="5.0" etag="abc123" version="24.7.17" type="device">
  <diagram name="Notion RAG Chatbot Architecture" id="notion-rag-chatbot">
    <mxGraphModel dx="1422" dy="794" grid="1" gridSize="10" guides="1" tooltips="1" connect="1" arrows="1" fold="1" page="1" pageScale="1" pageWidth="1169" pageHeight="827" math="0" shadow="0">
      <root>
        <mxCell id="0" />
        <mxCell id="1" parent="0" />
        
        <!-- AWS Cloud Container -->
        <mxCell id="aws-cloud" value="" style="sketch=0;outlineConnect=0;gradientColor=none;html=1;whiteSpace=wrap;fontSize=12;fontStyle=0;shape=mxgraph.aws4.group;grIcon=mxgraph.aws4.group_aws_cloud;strokeColor=#232F3E;fillColor=none;verticalAlign=top;align=left;spacingLeft=30;fontColor=#232F3E;dashed=0;" vertex="1" parent="1">
          <mxGeometry x="80" y="80" width="1000" height="680" as="geometry" />
        </mxCell>
        
        <!-- User -->
        <mxCell id="user" value="사용자" style="sketch=0;outlineConnect=0;fontColor=#232F3E;gradientColor=none;fillColor=#232F3D;strokeColor=none;dashed=0;verticalLabelPosition=bottom;verticalAlign=top;align=center;html=1;fontSize=12;fontStyle=0;aspect=fixed;pointerEvents=1;shape=mxgraph.aws4.user;" vertex="1" parent="1">
          <mxGeometry x="20" y="350" width="40" height="40" as="geometry" />
        </mxCell>
        
        <!-- VPC Container -->
        <mxCell id="vpc" value="VPC (Default)" style="sketch=0;outlineConnect=0;gradientColor=none;html=1;whiteSpace=wrap;fontSize=12;fontStyle=0;shape=mxgraph.aws4.group;grIcon=mxgraph.aws4.group_vpc;strokeColor=#248814;fillColor=none;verticalAlign=top;align=left;spacingLeft=30;fontColor=#232F3E;dashed=0;" vertex="1" parent="1">
          <mxGeometry x="120" y="120" width="920" height="600" as="geometry" />
        </mxCell>
        
        <!-- Public Subnet -->
        <mxCell id="public-subnet" value="Public Subnet" style="sketch=0;outlineConnect=0;gradientColor=none;html=1;whiteSpace=wrap;fontSize=12;fontStyle=0;shape=mxgraph.aws4.group;grIcon=mxgraph.aws4.group_subnet;strokeColor=#147EBA;fillColor=none;verticalAlign=top;align=left;spacingLeft=30;fontColor=#232F3E;dashed=0;" vertex="1" parent="1">
          <mxGeometry x="160" y="160" width="840" height="200" as="geometry" />
        </mxCell>
        
        <!-- Private Subnet -->
        <mxCell id="private-subnet" value="Private Subnet" style="sketch=0;outlineConnect=0;gradientColor=none;html=1;whiteSpace=wrap;fontSize=12;fontStyle=0;shape=mxgraph.aws4.group;grIcon=mxgraph.aws4.group_subnet;strokeColor=#147EBA;fillColor=none;verticalAlign=top;align=left;spacingLeft=30;fontColor=#232F3E;dashed=0;" vertex="1" parent="1">
          <mxGeometry x="160" y="400" width="840" height="280" as="geometry" />
        </mxCell>
        
        <!-- Application Load Balancer -->
        <mxCell id="alb" value="Application&#xa;Load Balancer" style="sketch=0;outlineConnect=0;fontColor=#232F3E;gradientColor=none;fillColor=#8C4FFF;strokeColor=none;dashed=0;verticalLabelPosition=bottom;verticalAlign=top;align=center;html=1;fontSize=12;fontStyle=0;aspect=fixed;pointerEvents=1;shape=mxgraph.aws4.application_load_balancer;" vertex="1" parent="1">
          <mxGeometry x="200" y="240" width="60" height="60" as="geometry" />
        </mxCell>
        
        <!-- ECS Cluster -->
        <mxCell id="ecs-cluster" value="ECS Cluster" style="sketch=0;outlineConnect=0;fontColor=#232F3E;gradientColor=none;fillColor=#ED7100;strokeColor=none;dashed=0;verticalLabelPosition=bottom;verticalAlign=top;align=center;html=1;fontSize=12;fontStyle=0;aspect=fixed;pointerEvents=1;shape=mxgraph.aws4.ecs_cluster;" vertex="1" parent="1">
          <mxGeometry x="400" y="240" width="60" height="60" as="geometry" />
        </mxCell>
        
        <!-- ECS Fargate Service -->
        <mxCell id="ecs-fargate" value="ECS Fargate&#xa;(Streamlit App)" style="sketch=0;outlineConnect=0;fontColor=#232F3E;gradientColor=none;fillColor=#ED7100;strokeColor=none;dashed=0;verticalLabelPosition=bottom;verticalAlign=top;align=center;html=1;fontSize=12;fontStyle=0;aspect=fixed;pointerEvents=1;shape=mxgraph.aws4.fargate;" vertex="1" parent="1">
          <mxGeometry x="600" y="240" width="60" height="60" as="geometry" />
        </mxCell>
        
        <!-- S3 Bucket -->
        <mxCell id="s3" value="S3 Bucket&#xa;(Notion Data)" style="sketch=0;outlineConnect=0;fontColor=#232F3E;gradientColor=none;fillColor=#7AA116;strokeColor=none;dashed=0;verticalLabelPosition=bottom;verticalAlign=top;align=center;html=1;fontSize=12;fontStyle=0;aspect=fixed;pointerEvents=1;shape=mxgraph.aws4.s3;" vertex="1" parent="1">
          <mxGeometry x="200" y="480" width="60" height="60" as="geometry" />
        </mxCell>
        
        <!-- Lambda Function -->
        <mxCell id="lambda" value="Lambda Function&#xa;(Notion Sync)" style="sketch=0;outlineConnect=0;fontColor=#232F3E;gradientColor=none;fillColor=#ED7100;strokeColor=none;dashed=0;verticalLabelPosition=bottom;verticalAlign=top;align=center;html=1;fontSize=12;fontStyle=0;aspect=fixed;pointerEvents=1;shape=mxgraph.aws4.lambda;" vertex="1" parent="1">
          <mxGeometry x="400" y="480" width="60" height="60" as="geometry" />
        </mxCell>
        
        <!-- EventBridge -->
        <mxCell id="eventbridge" value="EventBridge&#xa;(Scheduler)" style="sketch=0;outlineConnect=0;fontColor=#232F3E;gradientColor=none;fillColor=#E7157B;strokeColor=none;dashed=0;verticalLabelPosition=bottom;verticalAlign=top;align=center;html=1;fontSize=12;fontStyle=0;aspect=fixed;pointerEvents=1;shape=mxgraph.aws4.eventbridge;" vertex="1" parent="1">
          <mxGeometry x="600" y="480" width="60" height="60" as="geometry" />
        </mxCell>
        
        <!-- Secrets Manager -->
        <mxCell id="secrets" value="Secrets Manager&#xa;(Notion Token)" style="sketch=0;outlineConnect=0;fontColor=#232F3E;gradientColor=none;fillColor=#DD344C;strokeColor=none;dashed=0;verticalLabelPosition=bottom;verticalAlign=top;align=center;html=1;fontSize=12;fontStyle=0;aspect=fixed;pointerEvents=1;shape=mxgraph.aws4.secrets_manager;" vertex="1" parent="1">
          <mxGeometry x="800" y="480" width="60" height="60" as="geometry" />
        </mxCell>
        
        <!-- CloudWatch Logs -->
        <mxCell id="cloudwatch" value="CloudWatch&#xa;Logs" style="sketch=0;outlineConnect=0;fontColor=#232F3E;gradientColor=none;fillColor=#759C3E;strokeColor=none;dashed=0;verticalLabelPosition=bottom;verticalAlign=top;align=center;html=1;fontSize=12;fontStyle=0;aspect=fixed;pointerEvents=1;shape=mxgraph.aws4.cloudwatch;" vertex="1" parent="1">
          <mxGeometry x="800" y="240" width="60" height="60" as="geometry" />
        </mxCell>
        
        <!-- Bedrock -->
        <mxCell id="bedrock" value="Amazon Bedrock&#xa;(Claude 3.5 Sonnet)" style="sketch=0;outlineConnect=0;fontColor=#232F3E;gradientColor=none;fillColor=#01A88D;strokeColor=none;dashed=0;verticalLabelPosition=bottom;verticalAlign=top;align=center;html=1;fontSize=12;fontStyle=0;aspect=fixed;pointerEvents=1;shape=mxgraph.aws4.bedrock;" vertex="1" parent="1">
          <mxGeometry x="600" y="580" width="60" height="60" as="geometry" />
        </mxCell>
        
        <!-- Notion API (External) -->
        <mxCell id="notion-api" value="Notion API" style="sketch=0;outlineConnect=0;fontColor=#232F3E;gradientColor=none;fillColor=#4285F4;strokeColor=none;dashed=0;verticalLabelPosition=bottom;verticalAlign=top;align=center;html=1;fontSize=12;fontStyle=0;aspect=fixed;pointerEvents=1;shape=mxgraph.aws4.external_sdk;" vertex="1" parent="1">
          <mxGeometry x="1120" y="480" width="60" height="60" as="geometry" />
        </mxCell>
        
        <!-- Connections -->
        
        <!-- User to ALB -->
        <mxCell id="user-alb" value="HTTPS" style="edgeStyle=orthogonalEdgeStyle;rounded=0;orthogonalLoop=1;jettySize=auto;html=1;strokeColor=#232F3E;strokeWidth=2;" edge="1" parent="1" source="user" target="alb">
          <mxGeometry relative="1" as="geometry" />
        </mxCell>
        
        <!-- ALB to ECS Cluster -->
        <mxCell id="alb-ecs" value="HTTP" style="edgeStyle=orthogonalEdgeStyle;rounded=0;orthogonalLoop=1;jettySize=auto;html=1;strokeColor=#232F3E;strokeWidth=2;" edge="1" parent="1" source="alb" target="ecs-cluster">
          <mxGeometry relative="1" as="geometry" />
        </mxCell>
        
        <!-- ECS Cluster to Fargate -->
        <mxCell id="ecs-fargate-conn" value="Container" style="edgeStyle=orthogonalEdgeStyle;rounded=0;orthogonalLoop=1;jettySize=auto;html=1;strokeColor=#232F3E;strokeWidth=2;" edge="1" parent="1" source="ecs-cluster" target="ecs-fargate">
          <mxGeometry relative="1" as="geometry" />
        </mxCell>
        
        <!-- Fargate to S3 -->
        <mxCell id="fargate-s3" value="문서 검색" style="edgeStyle=orthogonalEdgeStyle;rounded=0;orthogonalLoop=1;jettySize=auto;html=1;strokeColor=#7AA116;strokeWidth=2;" edge="1" parent="1" source="ecs-fargate" target="s3">
          <mxGeometry relative="1" as="geometry" />
        </mxCell>
        
        <!-- Fargate to Bedrock -->
        <mxCell id="fargate-bedrock" value="AI 답변 생성" style="edgeStyle=orthogonalEdgeStyle;rounded=0;orthogonalLoop=1;jettySize=auto;html=1;strokeColor=#01A88D;strokeWidth=2;" edge="1" parent="1" source="ecs-fargate" target="bedrock">
          <mxGeometry relative="1" as="geometry" />
        </mxCell>
        
        <!-- Fargate to Lambda -->
        <mxCell id="fargate-lambda" value="수동 동기화" style="edgeStyle=orthogonalEdgeStyle;rounded=0;orthogonalLoop=1;jettySize=auto;html=1;strokeColor=#ED7100;strokeWidth=2;" edge="1" parent="1" source="ecs-fargate" target="lambda">
          <mxGeometry relative="1" as="geometry" />
        </mxCell>
        
        <!-- EventBridge to Lambda -->
        <mxCell id="eventbridge-lambda" value="1시간마다 트리거" style="edgeStyle=orthogonalEdgeStyle;rounded=0;orthogonalLoop=1;jettySize=auto;html=1;strokeColor=#E7157B;strokeWidth=2;" edge="1" parent="1" source="eventbridge" target="lambda">
          <mxGeometry relative="1" as="geometry" />
        </mxCell>
        
        <!-- Lambda to S3 -->
        <mxCell id="lambda-s3" value="데이터 저장" style="edgeStyle=orthogonalEdgeStyle;rounded=0;orthogonalLoop=1;jettySize=auto;html=1;strokeColor=#7AA116;strokeWidth=2;" edge="1" parent="1" source="lambda" target="s3">
          <mxGeometry relative="1" as="geometry" />
        </mxCell>
        
        <!-- Lambda to Notion API -->
        <mxCell id="lambda-notion" value="페이지 추출" style="edgeStyle=orthogonalEdgeStyle;rounded=0;orthogonalLoop=1;jettySize=auto;html=1;strokeColor=#4285F4;strokeWidth=2;" edge="1" parent="1" source="lambda" target="notion-api">
          <mxGeometry relative="1" as="geometry" />
        </mxCell>
        
        <!-- Secrets Manager connections -->
        <mxCell id="secrets-lambda" value="토큰 제공" style="edgeStyle=orthogonalEdgeStyle;rounded=0;orthogonalLoop=1;jettySize=auto;html=1;strokeColor=#DD344C;strokeWidth=2;" edge="1" parent="1" source="secrets" target="lambda">
          <mxGeometry relative="1" as="geometry" />
        </mxCell>
        
        <mxCell id="secrets-fargate" value="토큰 제공" style="edgeStyle=orthogonalEdgeStyle;rounded=0;orthogonalLoop=1;jettySize=auto;html=1;strokeColor=#DD344C;strokeWidth=2;" edge="1" parent="1" source="secrets" target="ecs-fargate">
          <mxGeometry relative="1" as="geometry" />
        </mxCell>
        
        <!-- CloudWatch connections -->
        <mxCell id="fargate-cloudwatch" value="로그" style="edgeStyle=orthogonalEdgeStyle;rounded=0;orthogonalLoop=1;jettySize=auto;html=1;strokeColor=#759C3E;strokeWidth=2;" edge="1" parent="1" source="ecs-fargate" target="cloudwatch">
          <mxGeometry relative="1" as="geometry" />
        </mxCell>
        
        <mxCell id="lambda-cloudwatch" value="로그" style="edgeStyle=orthogonalEdgeStyle;rounded=0;orthogonalLoop=1;jettySize=auto;html=1;strokeColor=#759C3E;strokeWidth=2;" edge="1" parent="1" source="lambda" target="cloudwatch">
          <mxGeometry relative="1" as="geometry" />
        </mxCell>
        
        <!-- Title -->
        <mxCell id="title" value="Notion RAG Chatbot - AWS Architecture" style="text;html=1;strokeColor=none;fillColor=none;align=center;verticalAlign=middle;whiteSpace=wrap;rounded=0;fontSize=16;fontStyle=1;fontColor=#232F3E;" vertex="1" parent="1">
          <mxGeometry x="400" y="20" width="300" height="30" as="geometry" />
        </mxCell>
        
        <!-- Legend -->
        <mxCell id="legend-box" value="" style="rounded=1;whiteSpace=wrap;html=1;strokeColor=#232F3E;fillColor=#F5F5F5;dashed=1;" vertex="1" parent="1">
          <mxGeometry x="1120" y="120" width="200" height="280" as="geometry" />
        </mxCell>
        
        <mxCell id="legend-title" value="범례" style="text;html=1;strokeColor=none;fillColor=none;align=center;verticalAlign=middle;whiteSpace=wrap;rounded=0;fontSize=14;fontStyle=1;fontColor=#232F3E;" vertex="1" parent="1">
          <mxGeometry x="1200" y="130" width="40" height="20" as="geometry" />
        </mxCell>
        
        <mxCell id="legend-data-flow" value="데이터 흐름" style="text;html=1;strokeColor=none;fillColor=none;align=left;verticalAlign=middle;whiteSpace=wrap;rounded=0;fontSize=10;fontColor=#7AA116;" vertex="1" parent="1">
          <mxGeometry x="1150" y="160" width="60" height="20" as="geometry" />
        </mxCell>
        
        <mxCell id="legend-ai-flow" value="AI 처리" style="text;html=1;strokeColor=none;fillColor=none;align=left;verticalAlign=middle;whiteSpace=wrap;rounded=0;fontSize=10;fontColor=#01A88D;" vertex="1" parent="1">
          <mxGeometry x="1150" y="180" width="60" height="20" as="geometry" />
        </mxCell>
        
        <mxCell id="legend-automation" value="자동화" style="text;html=1;strokeColor=none;fillColor=none;align=left;verticalAlign=middle;whiteSpace=wrap;rounded=0;fontSize=10;fontColor=#E7157B;" vertex="1" parent="1">
          <mxGeometry x="1150" y="200" width="60" height="20" as="geometry" />
        </mxCell>
        
        <mxCell id="legend-security" value="보안" style="text;html=1;strokeColor=none;fillColor=none;align=left;verticalAlign=middle;whiteSpace=wrap;rounded=0;fontSize=10;fontColor=#DD344C;" vertex="1" parent="1">
          <mxGeometry x="1150" y="220" width="60" height="20" as="geometry" />
        </mxCell>
        
        <mxCell id="legend-monitoring" value="모니터링" style="text;html=1;strokeColor=none;fillColor=none;align=left;verticalAlign=middle;whiteSpace=wrap;rounded=0;fontSize=10;fontColor=#759C3E;" vertex="1" parent="1">
          <mxGeometry x="1150" y="240" width="60" height="20" as="geometry" />
        </mxCell>
        
        <mxCell id="legend-external" value="외부 API" style="text;html=1;strokeColor=none;fillColor=none;align=left;verticalAlign=middle;whiteSpace=wrap;rounded=0;fontSize=10;fontColor=#4285F4;" vertex="1" parent="1">
          <mxGeometry x="1150" y="260" width="60" height="20" as="geometry" />
        </mxCell>
        
        <!-- Data Flow Annotations -->
        <mxCell id="flow-1" value="1. 사용자 질문" style="text;html=1;strokeColor=none;fillColor=#FFFFFF;align=center;verticalAlign=middle;whiteSpace=wrap;rounded=1;fontSize=10;fontColor=#232F3E;strokeWidth=1;" vertex="1" parent="1">
          <mxGeometry x="80" y="320" width="80" height="30" as="geometry" />
        </mxCell>
        
        <mxCell id="flow-2" value="2. 문서 검색" style="text;html=1;strokeColor=none;fillColor=#FFFFFF;align=center;verticalAlign=middle;whiteSpace=wrap;rounded=1;fontSize=10;fontColor=#232F3E;strokeWidth=1;" vertex="1" parent="1">
          <mxGeometry x="300" y="360" width="80" height="30" as="geometry" />
        </mxCell>
        
        <mxCell id="flow-3" value="3. AI 답변 생성" style="text;html=1;strokeColor=none;fillColor=#FFFFFF;align=center;verticalAlign=middle;whiteSpace=wrap;rounded=1;fontSize=10;fontColor=#232F3E;strokeWidth=1;" vertex="1" parent="1">
          <mxGeometry x="680" y="360" width="80" height="30" as="geometry" />
        </mxCell>
        
        <mxCell id="flow-4" value="4. 자동 동기화&#xa;(1시간마다)" style="text;html=1;strokeColor=none;fillColor=#FFFFFF;align=center;verticalAlign=middle;whiteSpace=wrap;rounded=1;fontSize=10;fontColor=#232F3E;strokeWidth=1;" vertex="1" parent="1">
          <mxGeometry x="500" y="420" width="80" height="40" as="geometry" />
        </mxCell>
        
      </root>
    </mxGraphModel>
  </diagram>
</mxfile>
